:version 1.10
:name ASF
:units
  mass 1
  length 1
  angle deg
:documentation
  ASF file generated by Kaydara
:root
  axis xyz
  order  tx ty tz rx ry rz
  position 0 0 0
  orientation 0 0 0
:bonedata
  begin
    id 1
    name RightUpLegDummy
    direction -1 2.30186e-007 8.31532e-007
    length 4.46685
    axis 0 0 0 xyz
  end
  begin
    id 2
    name RightUpLeg
    direction -2.30187e-007 -1 1.24343e-010
    length 16.4045
    axis -3.49089 -0.000906625 0.000286804 xyz
    dof rx ry rz
  end
  begin
    id 3
    name RightLeg
    direction -2.30181e-007 -1 -4.17157e-009
    length 17.5097
    axis 3.68512 0.0193738 -0.131023 xyz
    dof rx ry rz
  end
  begin
    id 4
    name RightFoot
    direction 8.31421e-007 -4.51202e-011 1
    length 6.49508
    axis 4.81691e-005 -0.120479 -0.188788 xyz
    dof rx ry rz
  end
  begin
    id 5
    name RightToes
    direction 0.00124746 -0.014064 0.9999
    length 3.85082
    axis 0.000481921 0.542163 -0.142578 xyz
    dof rx ry rz
  end
  begin
    id 6
    name SpineDummy
    direction 0.0717043 0.9409 -0.331007
    length 10.0032
    axis 0 0 0 xyz
  end
  begin
    id 7
    name Spine
    direction 2.30186e-007 1 4.58806e-011
    length 9.84055
    axis -0.001389 0.000121418 2.40972e-006 xyz
    dof rx ry rz
  end
  begin
    id 8
    name Spine1
    direction 0 0 0
    length 0
    axis -0.001389 0.000121451 1.30017e-006 xyz
    dof rx ry rz
  end
  begin
    id 9
    name HEadDummy
    direction -0.00347485 0.950688 -0.310128
    length 8.00997
    axis -0.001389 0.000121451 1.30017e-006 xyz
  end
  begin
    id 10
    name HEad
    direction -0.0222688 0.980941 0.193023
    length 5.12695
    axis -0.001389 0.000121451 1.30017e-006 xyz
    dof rx ry rz
  end
  begin
    id 11
    name LeftShoulder1Dummy
    direction 0.988871 0.146793 -0.0242004
    length 3.5792
    axis -0.001389 0.000121451 1.30017e-006 xyz
  end
  begin
    id 12
    name LeftShoulder1
    direction 0.993832 0.108932 0.020779
    length 4.16823
    axis -0.001389 0.000121451 1.30017e-006 xyz
    dof rx ry rz
  end
  begin
    id 13
    name LeftArm
    direction 1 3.44807e-006 -8.31404e-007
    length 9.91437
    axis -23.1894 0.134784 0.967509 xyz
    dof rx ry rz
  end
  begin
    id 14
    name LeftForeArm
    direction 1 3.44842e-006 -8.31581e-007
    length 9.08575
    axis -9.91835 -0.06569 -0.177793 xyz
    dof rx ry rz
  end
  begin
    id 15
    name LeftHand
    direction 0.992938 -0.0411636 0.11126
    length 5.32135
    axis -0.00960232 -0.00340091 0.185173 xyz
    dof rx ry rz
  end
  begin
    id 16
    name RightShoulderDummy
    direction -0.988871 0.146793 -0.0241962
    length 3.5792
    axis -0.001389 0.000121451 1.30017e-006 xyz
  end
  begin
    id 17
    name RightShoulder
    direction -0.993832 0.108933 0.0207785
    length 4.16823
    axis 0.215806 0.000203643 -0.0068026 xyz
    dof rx ry rz
  end
  begin
    id 18
    name RightArm
    direction -1 3.90912e-006 8.31284e-007
    length 9.91437
    axis -23.2009 -0.134239 -0.964101 xyz
    dof rx ry rz
  end
  begin
    id 19
    name RightForeArm
    direction -1 3.90882e-006 8.31502e-007
    length 9.08575
    axis -9.92322 0.0658061 0.178867 xyz
    dof rx ry rz
  end
  begin
    id 20
    name RightHand
    direction -0.992843 -0.0414603 0.112003
    length 5.28593
    axis -0.00960638 0.00330671 -0.185228 xyz
    dof rx ry rz
  end
  begin
    id 21
    name LeftUpLegDummy
    direction 1 -2.30186e-007 -8.31532e-007
    length 4.46685
    axis 0 0 0 xyz
  end
  begin
    id 22
    name LeftUpLeg
    direction -2.30187e-007 -1 6.00931e-010
    length 16.4045
    axis -3.48766 0.00143442 -0.000524262 xyz
    dof rx ry rz
  end
  begin
    id 23
    name LeftLeg
    direction -2.30187e-007 -1 1.6669e-009
    length 17.5097
    axis 3.68178 -0.00654042 -0.000285133 xyz
    dof rx ry rz
  end
  begin
    id 24
    name LeftFoot
    direction 8.31532e-007 -4.54478e-011 1
    length 6.49508
    axis 1.87233e-006 4.66016e-005 -8.6538e-006 xyz
    dof rx ry rz
  end
  begin
    id 25
    name LeftToes
    direction 0.00818058 -0.00485161 0.999955
    length 3.85048
    axis 1.06247e-005 4.65869e-005 -8.65513e-006 xyz
    dof rx ry rz
  end
:hierarchy
  begin
    root RightUpLegDummy SpineDummy LeftUpLegDummy
    RightUpLegDummy RightUpLeg
    RightUpLeg RightLeg
    RightLeg RightFoot
    RightFoot RightToes
    SpineDummy Spine
    Spine Spine1
    Spine1 HEadDummy LeftShoulder1Dummy RightShoulderDummy
    HEadDummy HEad
    LeftShoulder1Dummy LeftShoulder1
    LeftShoulder1 LeftArm
    LeftArm LeftForeArm
    LeftForeArm LeftHand
    RightShoulderDummy RightShoulder
    RightShoulder RightArm
    RightArm RightForeArm
    RightForeArm RightHand
    LeftUpLegDummy LeftUpLeg
    LeftUpLeg LeftLeg
    LeftLeg LeftFoot
    LeftFoot LeftToes
  end

:SAMPLES-PER-SECOND 30
:FULLY-SPECIFIED
:DEGREES
72
root  40.9697 33.5406 -66.2132 0.987524 -50.7803 -0.0861166
RightUpLeg  -9.44563 1.6086 0.466836
RightLeg  16.8182 -4.87672 -1.13576
RightFoot  1.27694 0.0182015 -0.152336
RightToes  -25.5139 -0.112781 -0.218484
Spine  5.31611 -2.34547 -0.0839108
Spine1  9.84093 -4.52678 -0.847804
HEad  10.2732 1.43559 7.49674
LeftShoulder1  0 -2.42657e-020 -4.95415e-022
LeftArm  15.8463 3.66817 -79.1074
LeftForeArm  47.1682 -69.7275 -28.7041
LeftHand  -0.0480369 -0.449057 12.0715
RightShoulder  0 2.42657e-020 1.07489e-018
RightArm  10.9041 -16.9928 67.2283
RightForeArm  150.489 77.1891 128.167
RightHand  -4.75838 13.8484 -37.4205
LeftUpLeg  -7.46585 6.60399 2.56512
LeftLeg  18.4396 -0.587417 -0.156906
LeftFoot  -1.61967 0.00560921 -0.0496604
LeftToes  -12.6394 8.72033e-007 1.17809e-007
73
root  40.9573 33.5402 -66.2324 0.980839 -50.7847 -0.0517533
RightUpLeg  -9.4577 1.55832 0.481174
RightLeg  16.7938 -4.82857 -1.12242
RightFoot  1.26078 0.0178301 -0.149175
RightToes  -25.4705 -0.112719 -0.218058
Spine  5.31007 -2.34752 -0.0711842
Spine1  9.83053 -4.53385 -0.819267
HEad  10.4587 1.4831 7.4033
LeftShoulder1  0 -2.42657e-020 -4.95415e-022
LeftArm  15.7943 3.79446 -79.1123
LeftForeArm  47.2836 -69.8273 -28.8742
LeftHand  -0.0501135 -0.42383 12.0455
RightShoulder  0 2.42657e-020 1.07489e-018
RightArm  10.8532 -17.0381 67.26
RightForeArm  150.438 77.1966 128.124
RightHand  -4.75998 13.8962 -37.3105
LeftUpLeg  -7.46248 6.63472 2.5868
LeftLeg  18.3915 -0.632859 -0.168301
LeftFoot  -1.54231 0.00611089 -0.0492455
LeftToes  -12.8821 8.72033e-007 1.17809e-007
74
root  40.9439 33.5395 -66.2459 0.963739 -50.7923 -0.00504299
RightUpLeg  -9.45578 1.48115 0.481454
RightLeg  16.7573 -4.76902 -1.10541
RightFoot  1.24715 0.0174391 -0.146046
RightToes  -25.4568 -0.112663 -0.217636
Spine  5.30114 -2.33637 -0.0563007
Spine1  9.81288 -4.51309 -0.789145
HEad  10.5662 1.58114 7.34949
LeftShoulder1  0 -2.42657e-020 -4.95415e-022
LeftArm  15.6691 3.90771 -79.2342
LeftForeArm  47.302 -69.8372 -28.8911
LeftHand  -0.0519665 -0.461199 12.0285
RightShoulder  0 2.42657e-020 1.07489e-018
RightArm  10.9071 -17.0291 67.2023
RightForeArm  150.577 77.1623 128.323
RightHand  -4.75947 13.8824 -37.3417
LeftUpLeg  -7.46044 6.28638 2.6202
LeftLeg  18.4195 -0.635769 -0.169401
LeftFoot  -1.42988 0.00658359 -0.0487226
LeftToes  -13.3774 8.72033e-007 1.17809e-007
75
root  40.9287 33.5388 -66.2566 0.965113 -50.7992 0.00509173
RightUpLeg  -9.45763 1.42711 0.498865
RightLeg  16.7375 -4.70716 -1.08939
RightFoot  1.21611 0.0170225 -0.14285
RightToes  -25.5054 -0.112608 -0.217222
Spine  5.28831 -2.32788 -0.0371058
Spine1  9.78843 -4.49848 -0.748506
HEad  10.7174 1.66289 7.23601
LeftShoulder1  0 -2.42657e-020 -4.95415e-022
LeftArm  15.534 4.03292 -79.3601
LeftForeArm  47.3377 -69.8709 -28.9491
LeftHand  -0.0511222 -0.444395 12.0669
RightShoulder  0 2.42657e-020 1.07489e-018
RightArm  10.9073 -16.9668 67.1567
RightForeArm  150.621 77.1327 128.493
RightHand  -4.73874 13.8569 -37.2538
LeftUpLeg  -7.45923 6.61859 2.61781
LeftLeg  18.3564 -0.637993 -0.169227
LeftFoot  -1.51095 0.00702605 -0.0480673
LeftToes  -12.9622 8.72033e-007 1.17809e-007
76
root  40.9134 33.5379 -66.264 0.953781 -50.7679 0.0326369
RightUpLeg  -9.46097 1.38844 0.507099
RightLeg  16.7683 -4.70047 -1.09052
RightFoot  1.17833 0.0165741 -0.139486
RightToes  -25.4935 -0.112548 -0.216817
Spine  5.27906 -2.32066 -0.019267
Spine1  9.76843 -4.48517 -0.714709
HEad  10.8302 1.72961 7.13371
LeftShoulder1  0 -2.42657e-020 -4.95415e-022
LeftArm  15.4553 4.13919 -79.4567
LeftForeArm  47.4239 -69.9138 -29.0229
LeftHand  -0.0489034 -0.452935 12.1399
RightShoulder  0 2.42657e-020 1.07489e-018
RightArm  10.8299 -16.9277 67.1429
RightForeArm  150.829 77.1037 128.66
RightHand  -4.76479 13.9405 -37.2332
LeftUpLeg  -7.43368 6.35607 2.6594
LeftLeg  18.3595 -0.719476 -0.190605
LeftFoot  -1.3934 0.007437 -0.0472553
LeftToes  -13.5394 8.72033e-007 1.17809e-007
77
root  40.8954 33.537 -66.2693 0.925899 -50.7154 0.0673869
RightUpLeg  -9.46341 1.3542 0.510945
RightLeg  16.8321 -4.70253 -1.09653
RightFoot  1.09626 0.0158605 -0.132318
RightToes  -25.4356 -0.112479 -0.216424
Spine  5.26586 -2.32231 -0.00848653
Spine1  9.74202 -4.48817 -0.695904
HEad  10.9486 1.76413 7.06032
LeftShoulder1  0 -2.42657e-020 -4.95415e-022
LeftArm  15.4002 4.26017 -79.5047
LeftForeArm  47.5933 -70.0335 -29.2314
LeftHand  -0.0463452 -0.427995 12.1869
RightShoulder  0 2.42657e-020 1.07489e-018
RightArm  10.8253 -16.843 67.1396
RightForeArm  150.809 77.1256 128.535
RightHand  -4.77418 13.9586 -37.2564
LeftUpLeg  -7.41115 6.27116 2.665
LeftLeg  18.3387 -0.701646 -0.185661
LeftFoot  -1.38241 0.00781516 -0.0462623
LeftToes  -13.6027 8.72033e-007 1.17809e-007
78
root  40.8771 33.5357 -66.2739 0.899843 -50.6641 0.0983679
RightUpLeg  -9.46322 1.36574 0.518311
RightLeg  16.8898 -4.7628 -1.11561
RightFoot  1.02366 0.0152485 -0.12704
RightToes  -25.3932 -0.112394 -0.216045
Spine  5.25543 -2.3146 0.00130809
Spine1  9.7202 -4.47178 -0.679161
HEad  11.0219 1.78418 7.02782
LeftShoulder1  0 -2.42657e-020 -4.95415e-022
LeftArm  15.3061 4.33227 -79.5573
LeftForeArm  47.7607 -70.0803 -29.3134
LeftHand  -0.0518642 -0.479032 12.2106
RightShoulder  0 2.42657e-020 1.07489e-018
RightArm  10.8043 -16.7923 67.1147
RightForeArm  150.995 77.0845 128.769
RightHand  -4.77965 13.995 -37.2044
LeftUpLeg  -7.39643 6.25112 2.67294
LeftLeg  18.3323 -0.746502 -0.197301
LeftFoot  -1.36427 0.00815927 -0.045064
LeftToes  -13.6764 8.72033e-007 1.17809e-007
79
root  40.8558 33.5323 -66.2777 0.880392 -50.5942 0.119197
RightUpLeg  -9.44693 1.25939 0.528327
RightLeg  16.9347 -4.72694 -1.11116
RightFoot  0.92134 0.0143152 -0.117076
RightToes  -25.3165 -0.11229 -0.215682
Spine  5.24406 -2.30178 0.00880475
Spine1  9.69754 -4.44758 -0.660383
HEad  11.0282 1.80313 7.02901
LeftShoulder1  0 -2.42657e-020 -4.95415e-022
LeftArm  15.2336 4.37654 -79.5725
LeftForeArm  47.9851 -70.1377 -29.4147
LeftHand  -0.0582167 -0.533945 12.2331
RightShoulder  0 2.42657e-020 1.07489e-018
RightArm  10.8786 -16.7581 67.0641
RightForeArm  151.37 77.0454 128.991
RightHand  -4.80051 14.0062 -37.3285
LeftUpLeg  -7.38964 6.17299 2.68229
LeftLeg  18.346 -0.721696 -0.191004
LeftFoot  -1.38657 0.00846806 -0.0436362
LeftToes  -13.7249 8.72033e-007 1.17809e-007
80
root  40.8341 33.5288 -66.2783 0.869491 -50.4735 0.126511
RightUpLeg  -9.41569 1.13184 0.542135
RightLeg  16.9715 -4.70815 -1.10995
RightFoot  0.833315 0.0134782 -0.108903
RightToes  -25.292 -0.112159 -0.215338
Spine  5.23511 -2.2949 0.0157416
Spine1  9.68013 -4.43625 -0.640537
HEad  11.0214 1.78674 7.06768
LeftShoulder1  0 -2.42657e-020 -4.95415e-022
LeftArm  15.1507 4.39499 -79.5813
LeftForeArm  48.1451 -70.2024 -29.5298
LeftHand  -0.0600984 -0.550335 12.2479
RightShoulder  0 2.42657e-020 1.07489e-018
RightArm  10.9535 -16.7403 67.0148
RightForeArm  151.631 77.0085 129.197
RightHand  -4.89726 14.2364 -37.4514
LeftUpLeg  -7.39795 6.37929 2.67266
LeftLeg  18.3241 -0.741794 -0.195957
LeftFoot  -1.50328 0.00874026 -0.0419546
LeftToes  -13.2117 8.72033e-007 1.17809e-007
81
root  40.8079 33.5284 -66.2754 0.873369 -50.302 0.120269
RightUpLeg  -9.35753 1.02895 0.568892
RightLeg  16.9824 -4.78395 -1.12873
RightFoot  0.743179 0.0126935 -0.101834
RightToes  -25.1515 -0.111998 -0.215013
Spine  5.22494 -2.2872 0.0260259
Spine1  9.65997 -4.42365 -0.614148
HEad  10.9823 1.7841 7.1224
LeftShoulder1  0 -2.42657e-020 -4.95415e-022
LeftArm  15.0828 4.4019 -79.6064
LeftForeArm  48.4224 -70.2411 -29.5988
LeftHand  -0.0597319 -0.543699 12.3254
RightShoulder  0 2.42657e-020 1.07489e-018
RightArm  10.9854 -16.7778 67.0158
RightForeArm  151.888 76.9497 129.521
RightHand  -4.88056 14.1895 -37.4486
LeftUpLeg  -7.40308 6.32826 2.70285
LeftLeg  18.3448 -0.853458 -0.225461
LeftFoot  -1.48765 0.00890665 -0.0389388
LeftToes  -13.3633 8.72033e-007 1.17809e-007
82
root  40.7816 33.5262 -66.2723 0.873827 -50.1294 0.108419
RightUpLeg  -9.30381 0.969682 0.60047
RightLeg  17.0159 -4.88527 -1.15558
RightFoot  0.656968 0.0119091 -0.0950532
RightToes  -25.1112 -0.111808 -0.214712
Spine  5.21033 -2.28394 0.0297842
Spine1  9.63124 -4.41765 -0.604137
HEad  10.9998 1.80544 7.20429
LeftShoulder1  0 -2.42657e-020 -4.95415e-022
LeftArm  15.029 4.4449 -79.5747
LeftForeArm  48.6133 -70.3061 -29.7158
LeftHand  -0.0633769 -0.571401 12.4384
RightShoulder  0 2.42657e-020 1.07489e-018
RightArm  11.0784 -16.7845 67.0277
RightForeArm  152.091 76.9476 129.534
RightHand  -4.91166 14.2158 -37.6065
LeftUpLeg  -7.40643 6.15559 2.7328
LeftLeg  18.3823 -0.868704 -0.23006
LeftFoot  -1.51468 0.0091065 -0.0367487
LeftToes  -13.3875 8.72033e-007 1.17809e-007
83
root  40.7568 33.5256 -66.2668 0.872706 -49.9334 0.115935
RightUpLeg  -9.2486 0.860129 0.611586
RightLeg  17.051 -4.971 -1.17902
RightFoot  0.588661 0.0111621 -0.0891295
RightToes  -25.105 -0.111597 -0.214436
Spine  5.20895 -2.27589 0.0340566
Spine1  9.62549 -4.39978 -0.598654
HEad  10.9609 1.78038 7.20589
LeftShoulder1  0 -2.42657e-020 -4.95415e-022
LeftArm  15.0289 4.4777 -79.5177
LeftForeArm  48.7655 -70.354 -29.8025
LeftHand  -0.0675619 -0.604826 12.5204
RightShoulder  0 2.42657e-020 1.07489e-018
RightArm  11.1404 -16.7996 67.039
RightForeArm  152.277 76.931 129.735
RightHand  -4.9205 14.2091 -37.6867
LeftUpLeg  -7.42731 5.67221 2.76823
LeftLeg  18.5006 -0.894284 -0.23876
LeftFoot  -1.45344 0.00930994 -0.0349155
LeftToes  -13.8681 8.72033e-007 1.17809e-007
84
root  40.7277 33.5213 -66.258 0.871595 -49.7414 0.0895593
RightUpLeg  -9.19171 0.802352 0.648951
RightLeg  17.1081 -5.0955 -1.21382
RightFoot  0.46821 0.0101187 -0.0788739
RightToes  -24.9105 -0.111363 -0.214187
Spine  5.20033 -2.26749 0.0405273
Spine1  9.60975 -4.38406 -0.581438
HEad  11.069 1.76839 7.18226
LeftShoulder1  0 -2.42657e-020 -4.95415e-022
LeftArm  15.1013 4.5047 -79.4373
LeftForeArm  48.8293 -70.3918 -29.8714
LeftHand  -0.0641336 -0.571255 12.6876
RightShoulder  0 2.42657e-020 1.07489e-018
RightArm  11.1998 -16.763 67.0768
RightForeArm  152.176 76.9414 129.644
RightHand  -4.92214 14.2091 -37.6987
LeftUpLeg  -7.42381 5.8121 2.77459
LeftLeg  18.4868 -0.907513 -0.242024
LeftFoot  -1.55679 0.00950478 -0.0332452
LeftToes  -13.5653 8.72033e-007 1.17809e-007
85
root  40.6959 33.5204 -66.2456 0.872084 -49.5789 0.0586314
RightUpLeg  -9.12444 0.755673 0.690743
RightLeg  17.1658 -5.21511 -1.24777
RightFoot  0.389891 0.00925717 -0.0717062
RightToes  -24.7626 -0.111109 -0.213968
Spine  5.18921 -2.25539 0.0474782
Spine1  9.5888 -4.35807 -0.569175
HEad  11.1795 1.77985 7.18091
LeftShoulder1  0 -2.42657e-020 -4.95415e-022
LeftArm  15.0729 4.55802 -79.4089
LeftForeArm  48.8206 -70.3912 -29.8703
LeftHand  -0.066137 -0.570005 12.6905
RightShoulder  0 2.42657e-020 1.07489e-018
RightArm  11.331 -16.7194 67.0551
RightForeArm  152.25 76.9427 129.652
RightHand  -4.93482 14.2185 -37.766
LeftUpLeg  -7.39076 5.71135 2.81199
LeftLeg  18.5059 -0.952949 -0.254372
LeftFoot  -1.59263 0.00967884 -0.0315438
LeftToes  -13.519 8.72033e-007 1.17809e-007
86
root  40.6632 33.5232 -66.228 0.876045 -49.4426 0.0212728
RightUpLeg  -8.99272 0.738555 0.734875
RightLeg  17.1098 -5.32806 -1.26918
RightFoot  0.365705 0.00890633 -0.0727252
RightToes  -24.5888 -0.110834 -0.21375
Spine  5.17194 -2.23861 0.0604439
Spine1  9.55429 -4.325 -0.541545
HEad  11.4022 1.79575 7.15839
LeftShoulder1  0 -2.42657e-020 -4.95415e-022
LeftArm  15.0694 4.62503 -79.373
LeftForeArm  48.7851 -70.4011 -29.8885
LeftHand  -0.0672541 -0.547685 12.6919
RightShoulder  0 2.42657e-020 1.07489e-018
RightArm  11.4531 -16.6786 67.0019
RightForeArm  152.067 76.9442 129.628
RightHand  -4.91171 14.1646 -37.7355
LeftUpLeg  -7.30738 5.6165 2.85557
LeftLeg  18.4609 -1.00134 -0.266331
LeftFoot  -1.57936 0.00983345 -0.0298277
LeftToes  -13.6506 8.72033e-007 1.17809e-007
